<mxfile modified="2019-11-05T07:30:51.204Z" host="www.draw.io" agent="Mozilla/5.0 (Windows NT 6.1; Win64; x64) AppleWebKit/537.36 (KHTML, like Gecko) Chrome/78.0.3904.70 Safari/537.36" etag="MmH8rICnfYSYLzeDKOIP" version="12.2.0" type="github" pages="1">
  <diagram id="9AN7pnrX8qKYws4FjDHC" name="第 1 页">
    <mxGraphModel dx="1886" dy="1708" grid="1" gridSize="10" guides="1" tooltips="1" connect="1" arrows="1" fold="1" page="1" pageScale="1" pageWidth="1400" pageHeight="850" math="0" shadow="0">
      <root>
        <mxCell id="0"/>
        <mxCell id="1" parent="0"/>
        <mxCell id="oP0pF-OlIuviT5u21Fy--4" value="3.使用订单系统退款单号和订单编号发起审核请求" style="edgeStyle=orthogonalEdgeStyle;rounded=0;orthogonalLoop=1;jettySize=auto;html=1;exitX=0.25;exitY=1;exitDx=0;exitDy=0;entryX=0.25;entryY=0;entryDx=0;entryDy=0;" parent="1" source="oP0pF-OlIuviT5u21Fy--1" target="oP0pF-OlIuviT5u21Fy--3" edge="1">
          <mxGeometry x="0.25" y="-140" relative="1" as="geometry">
            <mxPoint as="offset"/>
          </mxGeometry>
        </mxCell>
        <mxCell id="oP0pF-OlIuviT5u21Fy--7" value="1.发起退款申请" style="edgeStyle=orthogonalEdgeStyle;rounded=0;orthogonalLoop=1;jettySize=auto;html=1;exitX=1;exitY=0.75;exitDx=0;exitDy=0;entryX=0.25;entryY=0;entryDx=0;entryDy=0;" parent="1" source="oP0pF-OlIuviT5u21Fy--1" target="oP0pF-OlIuviT5u21Fy--5" edge="1">
          <mxGeometry relative="1" as="geometry"/>
        </mxCell>
        <mxCell id="oP0pF-OlIuviT5u21Fy--14" value="5.判断是否成功&amp;nbsp;" style="edgeStyle=orthogonalEdgeStyle;rounded=0;orthogonalLoop=1;jettySize=auto;html=1;exitX=0;exitY=0.5;exitDx=0;exitDy=0;entryX=0;entryY=0.5;entryDx=0;entryDy=0;" parent="1" source="oP0pF-OlIuviT5u21Fy--1" target="oP0pF-OlIuviT5u21Fy--13" edge="1">
          <mxGeometry relative="1" as="geometry"/>
        </mxCell>
        <mxCell id="oP0pF-OlIuviT5u21Fy--1" value="业务系统" style="rounded=0;whiteSpace=wrap;html=1;" parent="1" vertex="1">
          <mxGeometry x="270" y="140" width="120" height="60" as="geometry"/>
        </mxCell>
        <mxCell id="oP0pF-OlIuviT5u21Fy--6" value="4.返回结果" style="edgeStyle=orthogonalEdgeStyle;rounded=0;orthogonalLoop=1;jettySize=auto;html=1;exitX=0.75;exitY=0;exitDx=0;exitDy=0;entryX=0.75;entryY=1;entryDx=0;entryDy=0;dashed=1;" parent="1" source="oP0pF-OlIuviT5u21Fy--3" target="oP0pF-OlIuviT5u21Fy--1" edge="1">
          <mxGeometry x="-0.3333" y="-40" relative="1" as="geometry">
            <mxPoint x="370" y="350" as="targetPoint"/>
            <mxPoint as="offset"/>
          </mxGeometry>
        </mxCell>
        <mxCell id="oP0pF-OlIuviT5u21Fy--3" value="审核系统" style="rounded=0;whiteSpace=wrap;html=1;" parent="1" vertex="1">
          <mxGeometry x="270" y="230" width="120" height="60" as="geometry"/>
        </mxCell>
        <mxCell id="oP0pF-OlIuviT5u21Fy--9" value="2.返回退款单号" style="edgeStyle=orthogonalEdgeStyle;rounded=0;orthogonalLoop=1;jettySize=auto;html=1;exitX=0.75;exitY=0;exitDx=0;exitDy=0;entryX=1;entryY=0.25;entryDx=0;entryDy=0;dashed=1;" parent="1" source="oP0pF-OlIuviT5u21Fy--5" target="oP0pF-OlIuviT5u21Fy--1" edge="1">
          <mxGeometry relative="1" as="geometry"/>
        </mxCell>
        <mxCell id="oP0pF-OlIuviT5u21Fy--5" value="订单系统" style="rounded=0;whiteSpace=wrap;html=1;" parent="1" vertex="1">
          <mxGeometry x="480" y="230" width="120" height="60" as="geometry"/>
        </mxCell>
        <mxCell id="oP0pF-OlIuviT5u21Fy--15" value="5.N 失败,回滚" style="edgeStyle=orthogonalEdgeStyle;rounded=0;orthogonalLoop=1;jettySize=auto;html=1;exitX=1;exitY=0.5;exitDx=0;exitDy=0;entryX=1;entryY=0.25;entryDx=0;entryDy=0;" parent="1" source="oP0pF-OlIuviT5u21Fy--13" target="oP0pF-OlIuviT5u21Fy--5" edge="1">
          <mxGeometry relative="1" as="geometry"/>
        </mxCell>
        <mxCell id="oP0pF-OlIuviT5u21Fy--19" value="5.Y" style="edgeStyle=orthogonalEdgeStyle;rounded=0;orthogonalLoop=1;jettySize=auto;html=1;exitX=0.5;exitY=1;exitDx=0;exitDy=0;entryX=0.5;entryY=0;entryDx=0;entryDy=0;" parent="1" source="oP0pF-OlIuviT5u21Fy--13" target="oP0pF-OlIuviT5u21Fy--18" edge="1">
          <mxGeometry relative="1" as="geometry"/>
        </mxCell>
        <mxCell id="oP0pF-OlIuviT5u21Fy--13" value="是否成功" style="rhombus;whiteSpace=wrap;html=1;" parent="1" vertex="1">
          <mxGeometry x="480" y="360" width="80" height="80" as="geometry"/>
        </mxCell>
        <mxCell id="oP0pF-OlIuviT5u21Fy--18" value="请求结束" style="ellipse;whiteSpace=wrap;html=1;aspect=fixed;" parent="1" vertex="1">
          <mxGeometry x="480" y="510" width="80" height="80" as="geometry"/>
        </mxCell>
        <mxCell id="oP0pF-OlIuviT5u21Fy--29" style="edgeStyle=orthogonalEdgeStyle;rounded=0;orthogonalLoop=1;jettySize=auto;html=1;exitX=0.5;exitY=1;exitDx=0;exitDy=0;entryX=0.5;entryY=0;entryDx=0;entryDy=0;" parent="1" source="oP0pF-OlIuviT5u21Fy--24" target="oP0pF-OlIuviT5u21Fy--25" edge="1">
          <mxGeometry relative="1" as="geometry"/>
        </mxCell>
        <mxCell id="oP0pF-OlIuviT5u21Fy--30" style="edgeStyle=orthogonalEdgeStyle;rounded=0;orthogonalLoop=1;jettySize=auto;html=1;exitX=1;exitY=0.5;exitDx=0;exitDy=0;entryX=0.5;entryY=0;entryDx=0;entryDy=0;" parent="1" source="oP0pF-OlIuviT5u21Fy--24" target="oP0pF-OlIuviT5u21Fy--28" edge="1">
          <mxGeometry relative="1" as="geometry"/>
        </mxCell>
        <mxCell id="oP0pF-OlIuviT5u21Fy--24" value="订单初始化" style="ellipse;whiteSpace=wrap;html=1;dashed=1;" parent="1" vertex="1">
          <mxGeometry x="1040" y="130" width="120" height="80" as="geometry"/>
        </mxCell>
        <mxCell id="oP0pF-OlIuviT5u21Fy--35" style="edgeStyle=orthogonalEdgeStyle;rounded=0;orthogonalLoop=1;jettySize=auto;html=1;exitX=0;exitY=0.5;exitDx=0;exitDy=0;entryX=1;entryY=0.5;entryDx=0;entryDy=0;" parent="1" source="oP0pF-OlIuviT5u21Fy--25" target="oP0pF-OlIuviT5u21Fy--32" edge="1">
          <mxGeometry relative="1" as="geometry"/>
        </mxCell>
        <mxCell id="oP0pF-OlIuviT5u21Fy--36" style="edgeStyle=orthogonalEdgeStyle;rounded=0;orthogonalLoop=1;jettySize=auto;html=1;exitX=1;exitY=0.5;exitDx=0;exitDy=0;entryX=0;entryY=0.5;entryDx=0;entryDy=0;" parent="1" source="oP0pF-OlIuviT5u21Fy--25" target="oP0pF-OlIuviT5u21Fy--28" edge="1">
          <mxGeometry relative="1" as="geometry"/>
        </mxCell>
        <mxCell id="oP0pF-OlIuviT5u21Fy--39" style="edgeStyle=orthogonalEdgeStyle;rounded=0;jumpStyle=gap;orthogonalLoop=1;jettySize=auto;html=1;exitX=0.5;exitY=1;exitDx=0;exitDy=0;entryX=0.5;entryY=0;entryDx=0;entryDy=0;" parent="1" source="oP0pF-OlIuviT5u21Fy--25" target="oP0pF-OlIuviT5u21Fy--26" edge="1">
          <mxGeometry relative="1" as="geometry"/>
        </mxCell>
        <mxCell id="oP0pF-OlIuviT5u21Fy--25" value="确认订单" style="ellipse;whiteSpace=wrap;html=1;" parent="1" vertex="1">
          <mxGeometry x="1040" y="250" width="120" height="80" as="geometry"/>
        </mxCell>
        <mxCell id="oP0pF-OlIuviT5u21Fy--40" style="edgeStyle=orthogonalEdgeStyle;rounded=0;jumpStyle=arc;orthogonalLoop=1;jettySize=auto;html=1;exitX=0.5;exitY=1;exitDx=0;exitDy=0;entryX=0.5;entryY=0;entryDx=0;entryDy=0;dashed=1;" parent="1" source="oP0pF-OlIuviT5u21Fy--26" target="oP0pF-OlIuviT5u21Fy--27" edge="1">
          <mxGeometry relative="1" as="geometry"/>
        </mxCell>
        <mxCell id="oP0pF-OlIuviT5u21Fy--26" value="订单支付成功" style="ellipse;whiteSpace=wrap;html=1;" parent="1" vertex="1">
          <mxGeometry x="1040" y="410" width="120" height="80" as="geometry"/>
        </mxCell>
        <mxCell id="oP0pF-OlIuviT5u21Fy--42" value="退款驳回/退款回滚" style="edgeStyle=orthogonalEdgeStyle;rounded=0;jumpStyle=arc;orthogonalLoop=1;jettySize=auto;html=1;exitX=1;exitY=0.5;exitDx=0;exitDy=0;entryX=1;entryY=0.5;entryDx=0;entryDy=0;" parent="1" source="oP0pF-OlIuviT5u21Fy--27" target="oP0pF-OlIuviT5u21Fy--26" edge="1">
          <mxGeometry relative="1" as="geometry"/>
        </mxCell>
        <mxCell id="oP0pF-OlIuviT5u21Fy--44" style="edgeStyle=orthogonalEdgeStyle;rounded=0;jumpStyle=arc;orthogonalLoop=1;jettySize=auto;html=1;exitX=0.5;exitY=1;exitDx=0;exitDy=0;entryX=0.5;entryY=0;entryDx=0;entryDy=0;" parent="1" source="oP0pF-OlIuviT5u21Fy--27" target="oP0pF-OlIuviT5u21Fy--43" edge="1">
          <mxGeometry relative="1" as="geometry"/>
        </mxCell>
        <mxCell id="oP0pF-OlIuviT5u21Fy--27" value="订单退款中" style="ellipse;whiteSpace=wrap;html=1;" parent="1" vertex="1">
          <mxGeometry x="1040" y="540" width="120" height="80" as="geometry"/>
        </mxCell>
        <mxCell id="oP0pF-OlIuviT5u21Fy--28" value="订单关闭" style="ellipse;whiteSpace=wrap;html=1;" parent="1" vertex="1">
          <mxGeometry x="1210" y="250" width="120" height="80" as="geometry"/>
        </mxCell>
        <mxCell id="oP0pF-OlIuviT5u21Fy--38" style="edgeStyle=orthogonalEdgeStyle;rounded=0;jumpStyle=arc;orthogonalLoop=1;jettySize=auto;html=1;exitX=0.5;exitY=1;exitDx=0;exitDy=0;entryX=0.5;entryY=1;entryDx=0;entryDy=0;" parent="1" source="oP0pF-OlIuviT5u21Fy--32" target="oP0pF-OlIuviT5u21Fy--28" edge="1">
          <mxGeometry relative="1" as="geometry"/>
        </mxCell>
        <mxCell id="oP0pF-OlIuviT5u21Fy--32" value="订单支付失败" style="ellipse;whiteSpace=wrap;html=1;" parent="1" vertex="1">
          <mxGeometry x="880" y="250" width="120" height="80" as="geometry"/>
        </mxCell>
        <mxCell id="oP0pF-OlIuviT5u21Fy--46" style="edgeStyle=orthogonalEdgeStyle;rounded=0;jumpStyle=arc;orthogonalLoop=1;jettySize=auto;html=1;exitX=0.5;exitY=1;exitDx=0;exitDy=0;entryX=0.5;entryY=0;entryDx=0;entryDy=0;" parent="1" source="oP0pF-OlIuviT5u21Fy--43" target="oP0pF-OlIuviT5u21Fy--45" edge="1">
          <mxGeometry relative="1" as="geometry"/>
        </mxCell>
        <mxCell id="oP0pF-OlIuviT5u21Fy--50" style="edgeStyle=orthogonalEdgeStyle;rounded=0;jumpStyle=arc;orthogonalLoop=1;jettySize=auto;html=1;exitX=1;exitY=0.5;exitDx=0;exitDy=0;entryX=0;entryY=0.5;entryDx=0;entryDy=0;" parent="1" source="oP0pF-OlIuviT5u21Fy--43" target="oP0pF-OlIuviT5u21Fy--49" edge="1">
          <mxGeometry relative="1" as="geometry"/>
        </mxCell>
        <mxCell id="oP0pF-OlIuviT5u21Fy--59" value="长时间未终止" style="edgeStyle=orthogonalEdgeStyle;rounded=0;jumpStyle=arc;orthogonalLoop=1;jettySize=auto;html=1;exitX=1;exitY=0;exitDx=0;exitDy=0;entryX=0.5;entryY=0;entryDx=0;entryDy=0;dashed=1;" parent="1" source="oP0pF-OlIuviT5u21Fy--43" target="oP0pF-OlIuviT5u21Fy--54" edge="1">
          <mxGeometry relative="1" as="geometry">
            <Array as="points">
              <mxPoint x="1142" y="650"/>
              <mxPoint x="1530" y="650"/>
            </Array>
          </mxGeometry>
        </mxCell>
        <mxCell id="oP0pF-OlIuviT5u21Fy--43" value="订单退款处理中" style="ellipse;whiteSpace=wrap;html=1;" parent="1" vertex="1">
          <mxGeometry x="1040" y="670" width="120" height="80" as="geometry"/>
        </mxCell>
        <mxCell id="oP0pF-OlIuviT5u21Fy--45" value="订单退款成功" style="ellipse;whiteSpace=wrap;html=1;" parent="1" vertex="1">
          <mxGeometry x="1040" y="810" width="120" height="80" as="geometry"/>
        </mxCell>
        <mxCell id="oP0pF-OlIuviT5u21Fy--52" style="edgeStyle=orthogonalEdgeStyle;rounded=0;jumpStyle=arc;orthogonalLoop=1;jettySize=auto;html=1;exitX=0.5;exitY=1;exitDx=0;exitDy=0;entryX=1;entryY=0.5;entryDx=0;entryDy=0;dashed=1;" parent="1" source="oP0pF-OlIuviT5u21Fy--49" target="oP0pF-OlIuviT5u21Fy--45" edge="1">
          <mxGeometry relative="1" as="geometry"/>
        </mxCell>
        <mxCell id="oP0pF-OlIuviT5u21Fy--53" style="edgeStyle=orthogonalEdgeStyle;rounded=0;jumpStyle=arc;orthogonalLoop=1;jettySize=auto;html=1;exitX=1;exitY=0.5;exitDx=0;exitDy=0;entryX=0;entryY=0.5;entryDx=0;entryDy=0;" parent="1" source="oP0pF-OlIuviT5u21Fy--49" target="oP0pF-OlIuviT5u21Fy--54" edge="1">
          <mxGeometry relative="1" as="geometry">
            <mxPoint x="1450" y="710" as="targetPoint"/>
          </mxGeometry>
        </mxCell>
        <mxCell id="oP0pF-OlIuviT5u21Fy--49" value="订单退款失败" style="ellipse;whiteSpace=wrap;html=1;" parent="1" vertex="1">
          <mxGeometry x="1220" y="670" width="120" height="80" as="geometry"/>
        </mxCell>
        <mxCell id="oP0pF-OlIuviT5u21Fy--54" value="系统通知相关人员" style="shape=parallelogram;perimeter=parallelogramPerimeter;whiteSpace=wrap;html=1;" parent="1" vertex="1">
          <mxGeometry x="1450" y="680" width="160" height="60" as="geometry"/>
        </mxCell>
        <mxCell id="oP0pF-OlIuviT5u21Fy--69" value="2.发送要确认的退款订阅消息" style="edgeStyle=orthogonalEdgeStyle;rounded=0;jumpStyle=arc;orthogonalLoop=1;jettySize=auto;html=1;exitX=1;exitY=0.75;exitDx=0;exitDy=0;entryX=0;entryY=0.75;entryDx=0;entryDy=0;dashed=1;" parent="1" source="oP0pF-OlIuviT5u21Fy--60" target="oP0pF-OlIuviT5u21Fy--64" edge="1">
          <mxGeometry relative="1" as="geometry"/>
        </mxCell>
        <mxCell id="oP0pF-OlIuviT5u21Fy--85" value="5.n" style="edgeStyle=orthogonalEdgeStyle;rounded=0;jumpStyle=arc;orthogonalLoop=1;jettySize=auto;html=1;exitX=0.5;exitY=1;exitDx=0;exitDy=0;entryX=0.5;entryY=0;entryDx=0;entryDy=0;" parent="1" source="oP0pF-OlIuviT5u21Fy--60" target="oP0pF-OlIuviT5u21Fy--84" edge="1">
          <mxGeometry relative="1" as="geometry"/>
        </mxCell>
        <mxCell id="oP0pF-OlIuviT5u21Fy--60" value="订单系统" style="rounded=0;whiteSpace=wrap;html=1;" parent="1" vertex="1">
          <mxGeometry x="140" y="1300" width="120" height="60" as="geometry"/>
        </mxCell>
        <mxCell id="oP0pF-OlIuviT5u21Fy--63" value="1.确认退款" style="edgeStyle=orthogonalEdgeStyle;rounded=0;jumpStyle=arc;orthogonalLoop=1;jettySize=auto;html=1;exitX=0.5;exitY=1;exitDx=0;exitDy=0;entryX=0.5;entryY=0;entryDx=0;entryDy=0;" parent="1" source="oP0pF-OlIuviT5u21Fy--62" target="oP0pF-OlIuviT5u21Fy--60" edge="1">
          <mxGeometry relative="1" as="geometry"/>
        </mxCell>
        <mxCell id="oP0pF-OlIuviT5u21Fy--62" value="审核系统" style="rounded=0;whiteSpace=wrap;html=1;" parent="1" vertex="1">
          <mxGeometry x="140" y="990" width="120" height="60" as="geometry"/>
        </mxCell>
        <mxCell id="oP0pF-OlIuviT5u21Fy--71" value="3.n.消息订阅" style="edgeStyle=orthogonalEdgeStyle;rounded=0;jumpStyle=arc;orthogonalLoop=1;jettySize=auto;html=1;exitX=0;exitY=0.25;exitDx=0;exitDy=0;entryX=1;entryY=0.5;entryDx=0;entryDy=0;dashed=1;" parent="1" source="oP0pF-OlIuviT5u21Fy--64" target="oP0pF-OlIuviT5u21Fy--65" edge="1">
          <mxGeometry x="-0.3562" relative="1" as="geometry">
            <mxPoint as="offset"/>
          </mxGeometry>
        </mxCell>
        <mxCell id="oP0pF-OlIuviT5u21Fy--72" style="edgeStyle=orthogonalEdgeStyle;rounded=0;jumpStyle=arc;orthogonalLoop=1;jettySize=auto;html=1;exitX=0;exitY=0.25;exitDx=0;exitDy=0;entryX=1;entryY=0.5;entryDx=0;entryDy=0;dashed=1;" parent="1" source="oP0pF-OlIuviT5u21Fy--64" target="oP0pF-OlIuviT5u21Fy--66" edge="1">
          <mxGeometry relative="1" as="geometry"/>
        </mxCell>
        <mxCell id="oP0pF-OlIuviT5u21Fy--93" style="edgeStyle=orthogonalEdgeStyle;rounded=0;jumpStyle=arc;orthogonalLoop=1;jettySize=auto;html=1;exitX=1;exitY=0.5;exitDx=0;exitDy=0;entryX=0;entryY=0.5;entryDx=0;entryDy=0;dashed=1;" parent="1" source="oP0pF-OlIuviT5u21Fy--64" target="oP0pF-OlIuviT5u21Fy--89" edge="1">
          <mxGeometry relative="1" as="geometry"/>
        </mxCell>
        <mxCell id="oP0pF-OlIuviT5u21Fy--94" style="edgeStyle=orthogonalEdgeStyle;rounded=0;jumpStyle=arc;orthogonalLoop=1;jettySize=auto;html=1;exitX=1;exitY=0.5;exitDx=0;exitDy=0;entryX=0;entryY=0.5;entryDx=0;entryDy=0;dashed=1;" parent="1" source="oP0pF-OlIuviT5u21Fy--64" target="oP0pF-OlIuviT5u21Fy--90" edge="1">
          <mxGeometry relative="1" as="geometry"/>
        </mxCell>
        <mxCell id="oP0pF-OlIuviT5u21Fy--95" value="8" style="edgeStyle=orthogonalEdgeStyle;rounded=0;jumpStyle=arc;orthogonalLoop=1;jettySize=auto;html=1;exitX=1;exitY=0.5;exitDx=0;exitDy=0;dashed=1;" parent="1" source="oP0pF-OlIuviT5u21Fy--64" target="oP0pF-OlIuviT5u21Fy--91" edge="1">
          <mxGeometry x="-0.7288" y="5" relative="1" as="geometry">
            <mxPoint as="offset"/>
          </mxGeometry>
        </mxCell>
        <mxCell id="oP0pF-OlIuviT5u21Fy--64" value="MQ" style="rounded=0;whiteSpace=wrap;html=1;" parent="1" vertex="1">
          <mxGeometry x="620" y="990" width="120" height="370" as="geometry"/>
        </mxCell>
        <mxCell id="oP0pF-OlIuviT5u21Fy--78" style="edgeStyle=orthogonalEdgeStyle;rounded=0;jumpStyle=arc;orthogonalLoop=1;jettySize=auto;html=1;exitX=0;exitY=0.5;exitDx=0;exitDy=0;entryX=1;entryY=0.25;entryDx=0;entryDy=0;" parent="1" source="oP0pF-OlIuviT5u21Fy--65" target="oP0pF-OlIuviT5u21Fy--60" edge="1">
          <mxGeometry relative="1" as="geometry"/>
        </mxCell>
        <mxCell id="oP0pF-OlIuviT5u21Fy--65" value="业务A..." style="rounded=0;whiteSpace=wrap;html=1;" parent="1" vertex="1">
          <mxGeometry x="390" y="990" width="120" height="60" as="geometry"/>
        </mxCell>
        <mxCell id="oP0pF-OlIuviT5u21Fy--79" value="4.n业务回调处理成功" style="edgeStyle=orthogonalEdgeStyle;rounded=0;jumpStyle=arc;orthogonalLoop=1;jettySize=auto;html=1;exitX=0;exitY=0.5;exitDx=0;exitDy=0;entryX=1;entryY=0.25;entryDx=0;entryDy=0;" parent="1" source="oP0pF-OlIuviT5u21Fy--66" target="oP0pF-OlIuviT5u21Fy--60" edge="1">
          <mxGeometry relative="1" as="geometry"/>
        </mxCell>
        <mxCell id="oP0pF-OlIuviT5u21Fy--66" value="..." style="rounded=0;whiteSpace=wrap;html=1;" parent="1" vertex="1">
          <mxGeometry x="390" y="1090" width="120" height="60" as="geometry"/>
        </mxCell>
        <mxCell id="oP0pF-OlIuviT5u21Fy--87" value="6" style="edgeStyle=orthogonalEdgeStyle;rounded=0;jumpStyle=arc;orthogonalLoop=1;jettySize=auto;html=1;exitX=0.5;exitY=1;exitDx=0;exitDy=0;" parent="1" source="oP0pF-OlIuviT5u21Fy--84" target="oP0pF-OlIuviT5u21Fy--86" edge="1">
          <mxGeometry relative="1" as="geometry"/>
        </mxCell>
        <mxCell id="oP0pF-OlIuviT5u21Fy--84" value="退款计数器是否走满" style="rhombus;whiteSpace=wrap;html=1;" parent="1" vertex="1">
          <mxGeometry x="160" y="1450" width="80" height="80" as="geometry"/>
        </mxCell>
        <mxCell id="oP0pF-OlIuviT5u21Fy--88" value="7.发送通知消息消息" style="edgeStyle=orthogonalEdgeStyle;rounded=0;jumpStyle=arc;orthogonalLoop=1;jettySize=auto;html=1;exitX=1;exitY=0.5;exitDx=0;exitDy=0;entryX=0.25;entryY=1;entryDx=0;entryDy=0;dashed=1;" parent="1" source="oP0pF-OlIuviT5u21Fy--86" target="oP0pF-OlIuviT5u21Fy--64" edge="1">
          <mxGeometry x="-0.3134" relative="1" as="geometry">
            <mxPoint as="offset"/>
          </mxGeometry>
        </mxCell>
        <mxCell id="oP0pF-OlIuviT5u21Fy--86" value="开始异步退款流程" style="rounded=0;whiteSpace=wrap;html=1;" parent="1" vertex="1">
          <mxGeometry x="140" y="1610" width="120" height="60" as="geometry"/>
        </mxCell>
        <mxCell id="oP0pF-OlIuviT5u21Fy--89" value="系统A..." style="rounded=0;whiteSpace=wrap;html=1;" parent="1" vertex="1">
          <mxGeometry x="880" y="990" width="120" height="60" as="geometry"/>
        </mxCell>
        <mxCell id="oP0pF-OlIuviT5u21Fy--90" value="系统B..." style="rounded=0;whiteSpace=wrap;html=1;" parent="1" vertex="1">
          <mxGeometry x="880" y="1145" width="120" height="60" as="geometry"/>
        </mxCell>
        <mxCell id="oP0pF-OlIuviT5u21Fy--91" value="..." style="rounded=0;whiteSpace=wrap;html=1;" parent="1" vertex="1">
          <mxGeometry x="880" y="1300" width="120" height="60" as="geometry"/>
        </mxCell>
        <mxCell id="oP0pF-OlIuviT5u21Fy--127" value="6" style="edgeStyle=orthogonalEdgeStyle;rounded=0;jumpStyle=arc;orthogonalLoop=1;jettySize=auto;html=1;exitX=0.5;exitY=1;exitDx=0;exitDy=0;" parent="1" source="oP0pF-OlIuviT5u21Fy--99" target="oP0pF-OlIuviT5u21Fy--115" edge="1">
          <mxGeometry relative="1" as="geometry"/>
        </mxCell>
        <mxCell id="oP0pF-OlIuviT5u21Fy--99" value="订单系统" style="rounded=0;whiteSpace=wrap;html=1;" parent="1" vertex="1">
          <mxGeometry x="620" y="1770" width="120" height="60" as="geometry"/>
        </mxCell>
        <mxCell id="oP0pF-OlIuviT5u21Fy--100" value="1.2确认退款" style="edgeStyle=orthogonalEdgeStyle;rounded=0;jumpStyle=arc;orthogonalLoop=1;jettySize=auto;html=1;exitX=1;exitY=0.5;exitDx=0;exitDy=0;entryX=0;entryY=0.5;entryDx=0;entryDy=0;" parent="1" source="oP0pF-OlIuviT5u21Fy--101" target="oP0pF-OlIuviT5u21Fy--119" edge="1">
          <mxGeometry x="0.04" y="-10" relative="1" as="geometry">
            <mxPoint x="190" y="1910" as="targetPoint"/>
            <mxPoint as="offset"/>
          </mxGeometry>
        </mxCell>
        <mxCell id="oP0pF-OlIuviT5u21Fy--125" value="1.1变更为确认模式" style="edgeStyle=orthogonalEdgeStyle;rounded=0;jumpStyle=arc;orthogonalLoop=1;jettySize=auto;html=1;exitX=0.5;exitY=1;exitDx=0;exitDy=0;entryX=0.25;entryY=1;entryDx=0;entryDy=0;" parent="1" source="oP0pF-OlIuviT5u21Fy--101" target="oP0pF-OlIuviT5u21Fy--99" edge="1">
          <mxGeometry relative="1" as="geometry"/>
        </mxCell>
        <mxCell id="oP0pF-OlIuviT5u21Fy--101" value="审核系统" style="rounded=0;whiteSpace=wrap;html=1;" parent="1" vertex="1">
          <mxGeometry x="130" y="1770" width="120" height="60" as="geometry"/>
        </mxCell>
        <mxCell id="oP0pF-OlIuviT5u21Fy--104" style="edgeStyle=orthogonalEdgeStyle;rounded=0;jumpStyle=arc;orthogonalLoop=1;jettySize=auto;html=1;exitX=0;exitY=0.5;exitDx=0;exitDy=0;entryX=1;entryY=0.5;entryDx=0;entryDy=0;dashed=1;" parent="1" source="oP0pF-OlIuviT5u21Fy--107" target="oP0pF-OlIuviT5u21Fy--116" edge="1">
          <mxGeometry relative="1" as="geometry"/>
        </mxCell>
        <mxCell id="oP0pF-OlIuviT5u21Fy--105" style="edgeStyle=orthogonalEdgeStyle;rounded=0;jumpStyle=arc;orthogonalLoop=1;jettySize=auto;html=1;exitX=0;exitY=0.5;exitDx=0;exitDy=0;entryX=1;entryY=0.5;entryDx=0;entryDy=0;dashed=1;" parent="1" source="oP0pF-OlIuviT5u21Fy--107" target="oP0pF-OlIuviT5u21Fy--117" edge="1">
          <mxGeometry relative="1" as="geometry"/>
        </mxCell>
        <mxCell id="oP0pF-OlIuviT5u21Fy--106" value="8" style="edgeStyle=orthogonalEdgeStyle;rounded=0;jumpStyle=arc;orthogonalLoop=1;jettySize=auto;html=1;exitX=0;exitY=0.5;exitDx=0;exitDy=0;dashed=1;entryX=1;entryY=0.5;entryDx=0;entryDy=0;" parent="1" source="oP0pF-OlIuviT5u21Fy--107" target="oP0pF-OlIuviT5u21Fy--118" edge="1">
          <mxGeometry x="-0.7288" y="5" relative="1" as="geometry">
            <mxPoint as="offset"/>
          </mxGeometry>
        </mxCell>
        <mxCell id="oP0pF-OlIuviT5u21Fy--107" value="MQ" style="rounded=0;whiteSpace=wrap;html=1;" parent="1" vertex="1">
          <mxGeometry x="340" y="2020" width="120" height="60" as="geometry"/>
        </mxCell>
        <mxCell id="oP0pF-OlIuviT5u21Fy--114" value="7.发送通知消息消息" style="edgeStyle=orthogonalEdgeStyle;rounded=0;jumpStyle=arc;orthogonalLoop=1;jettySize=auto;html=1;exitX=0;exitY=0.5;exitDx=0;exitDy=0;entryX=1;entryY=0.5;entryDx=0;entryDy=0;dashed=1;" parent="1" source="oP0pF-OlIuviT5u21Fy--115" target="oP0pF-OlIuviT5u21Fy--107" edge="1">
          <mxGeometry x="0.0123" y="-21" relative="1" as="geometry">
            <mxPoint x="10" y="3" as="offset"/>
          </mxGeometry>
        </mxCell>
        <mxCell id="oP0pF-OlIuviT5u21Fy--115" value="开始异步退款流程" style="rounded=0;whiteSpace=wrap;html=1;" parent="1" vertex="1">
          <mxGeometry x="620" y="2020" width="120" height="60" as="geometry"/>
        </mxCell>
        <mxCell id="oP0pF-OlIuviT5u21Fy--116" value="系统A..." style="rounded=0;whiteSpace=wrap;html=1;" parent="1" vertex="1">
          <mxGeometry x="130" y="1940" width="120" height="60" as="geometry"/>
        </mxCell>
        <mxCell id="oP0pF-OlIuviT5u21Fy--118" value="..." style="rounded=0;whiteSpace=wrap;html=1;" parent="1" vertex="1">
          <mxGeometry x="130" y="2110" width="120" height="60" as="geometry"/>
        </mxCell>
        <mxCell id="oP0pF-OlIuviT5u21Fy--120" value="2.发送退款确认信息" style="edgeStyle=orthogonalEdgeStyle;rounded=0;jumpStyle=arc;orthogonalLoop=1;jettySize=auto;html=1;exitX=1;exitY=0.5;exitDx=0;exitDy=0;entryX=0;entryY=0.5;entryDx=0;entryDy=0;dashed=1;" parent="1" source="oP0pF-OlIuviT5u21Fy--119" target="oP0pF-OlIuviT5u21Fy--99" edge="1">
          <mxGeometry relative="1" as="geometry"/>
        </mxCell>
        <mxCell id="oP0pF-OlIuviT5u21Fy--119" value="业务系统" style="rounded=0;whiteSpace=wrap;html=1;" parent="1" vertex="1">
          <mxGeometry x="340" y="1770" width="120" height="60" as="geometry"/>
        </mxCell>
        <mxCell id="oP0pF-OlIuviT5u21Fy--117" value="系统B..." style="rounded=0;whiteSpace=wrap;html=1;" parent="1" vertex="1">
          <mxGeometry x="130" y="2020" width="120" height="60" as="geometry"/>
        </mxCell>
        <mxCell id="oP0pF-OlIuviT5u21Fy--128" style="edgeStyle=orthogonalEdgeStyle;rounded=0;jumpStyle=arc;orthogonalLoop=1;jettySize=auto;html=1;exitX=0;exitY=0.5;exitDx=0;exitDy=0;entryX=1;entryY=0.5;entryDx=0;entryDy=0;dashed=1;" parent="1" source="oP0pF-OlIuviT5u21Fy--107" target="oP0pF-OlIuviT5u21Fy--117" edge="1">
          <mxGeometry relative="1" as="geometry">
            <mxPoint x="340" y="2050" as="sourcePoint"/>
            <mxPoint x="-10" y="1925" as="targetPoint"/>
          </mxGeometry>
        </mxCell>
        <mxCell id="oP0pF-OlIuviT5u21Fy--129" value="2.发送要确认的退款订阅消息" style="edgeStyle=orthogonalEdgeStyle;rounded=0;jumpStyle=arc;orthogonalLoop=1;jettySize=auto;html=1;exitX=1;exitY=0.5;exitDx=0;exitDy=0;entryX=0;entryY=0.75;entryDx=0;entryDy=0;dashed=1;" parent="1" source="oP0pF-OlIuviT5u21Fy--131" target="oP0pF-OlIuviT5u21Fy--139" edge="1">
          <mxGeometry relative="1" as="geometry"/>
        </mxCell>
        <mxCell id="oP0pF-OlIuviT5u21Fy--131" value="订单系统" style="rounded=0;whiteSpace=wrap;html=1;" parent="1" vertex="1">
          <mxGeometry x="900.0714285714286" y="1890" width="120" height="60" as="geometry"/>
        </mxCell>
        <mxCell id="oP0pF-OlIuviT5u21Fy--132" value="1.确认退款" style="edgeStyle=orthogonalEdgeStyle;rounded=0;jumpStyle=arc;orthogonalLoop=1;jettySize=auto;html=1;exitX=0.5;exitY=1;exitDx=0;exitDy=0;entryX=0.5;entryY=0;entryDx=0;entryDy=0;" parent="1" source="oP0pF-OlIuviT5u21Fy--133" target="oP0pF-OlIuviT5u21Fy--131" edge="1">
          <mxGeometry relative="1" as="geometry"/>
        </mxCell>
        <mxCell id="oP0pF-OlIuviT5u21Fy--133" value="审核系统" style="rounded=0;whiteSpace=wrap;html=1;" parent="1" vertex="1">
          <mxGeometry x="900.0714285714286" y="1580" width="120" height="60" as="geometry"/>
        </mxCell>
        <mxCell id="oP0pF-OlIuviT5u21Fy--134" value="3.n.消息订阅" style="edgeStyle=orthogonalEdgeStyle;rounded=0;jumpStyle=arc;orthogonalLoop=1;jettySize=auto;html=1;exitX=0;exitY=0.25;exitDx=0;exitDy=0;entryX=1;entryY=0.5;entryDx=0;entryDy=0;dashed=1;startArrow=async;startFill=1;" parent="1" source="oP0pF-OlIuviT5u21Fy--139" target="oP0pF-OlIuviT5u21Fy--141" edge="1">
          <mxGeometry x="-0.3562" relative="1" as="geometry">
            <mxPoint as="offset"/>
          </mxGeometry>
        </mxCell>
        <mxCell id="oP0pF-OlIuviT5u21Fy--135" style="edgeStyle=orthogonalEdgeStyle;rounded=0;jumpStyle=arc;orthogonalLoop=1;jettySize=auto;html=1;exitX=0;exitY=0.25;exitDx=0;exitDy=0;entryX=1;entryY=0.5;entryDx=0;entryDy=0;dashed=1;startArrow=async;startFill=1;" parent="1" source="oP0pF-OlIuviT5u21Fy--139" target="oP0pF-OlIuviT5u21Fy--143" edge="1">
          <mxGeometry relative="1" as="geometry"/>
        </mxCell>
        <mxCell id="oP0pF-OlIuviT5u21Fy--136" style="edgeStyle=orthogonalEdgeStyle;rounded=0;jumpStyle=arc;orthogonalLoop=1;jettySize=auto;html=1;exitX=1;exitY=0.5;exitDx=0;exitDy=0;entryX=0;entryY=0.5;entryDx=0;entryDy=0;dashed=1;" parent="1" source="oP0pF-OlIuviT5u21Fy--139" target="oP0pF-OlIuviT5u21Fy--148" edge="1">
          <mxGeometry relative="1" as="geometry"/>
        </mxCell>
        <mxCell id="oP0pF-OlIuviT5u21Fy--137" style="edgeStyle=orthogonalEdgeStyle;rounded=0;jumpStyle=arc;orthogonalLoop=1;jettySize=auto;html=1;exitX=1;exitY=0.5;exitDx=0;exitDy=0;entryX=0;entryY=0.5;entryDx=0;entryDy=0;dashed=1;" parent="1" source="oP0pF-OlIuviT5u21Fy--139" target="oP0pF-OlIuviT5u21Fy--149" edge="1">
          <mxGeometry relative="1" as="geometry"/>
        </mxCell>
        <mxCell id="oP0pF-OlIuviT5u21Fy--138" value="6" style="edgeStyle=orthogonalEdgeStyle;rounded=0;jumpStyle=arc;orthogonalLoop=1;jettySize=auto;html=1;exitX=1;exitY=0.5;exitDx=0;exitDy=0;dashed=1;" parent="1" source="oP0pF-OlIuviT5u21Fy--139" target="oP0pF-OlIuviT5u21Fy--150" edge="1">
          <mxGeometry x="-0.7288" y="5" relative="1" as="geometry">
            <mxPoint as="offset"/>
          </mxGeometry>
        </mxCell>
        <mxCell id="oP0pF-OlIuviT5u21Fy--151" value="4.消息回调" style="edgeStyle=orthogonalEdgeStyle;rounded=0;jumpStyle=arc;orthogonalLoop=1;jettySize=auto;html=1;exitX=0.25;exitY=1;exitDx=0;exitDy=0;entryX=0.5;entryY=0;entryDx=0;entryDy=0;startArrow=none;startFill=0;" parent="1" source="oP0pF-OlIuviT5u21Fy--139" target="oP0pF-OlIuviT5u21Fy--147" edge="1">
          <mxGeometry relative="1" as="geometry"/>
        </mxCell>
        <mxCell id="oP0pF-OlIuviT5u21Fy--139" value="MQ" style="rounded=0;whiteSpace=wrap;html=1;" parent="1" vertex="1">
          <mxGeometry x="1380.0714285714284" y="1580" width="120" height="370" as="geometry"/>
        </mxCell>
        <mxCell id="oP0pF-OlIuviT5u21Fy--141" value="业务A..." style="rounded=0;whiteSpace=wrap;html=1;" parent="1" vertex="1">
          <mxGeometry x="1150.0714285714284" y="1580" width="120" height="60" as="geometry"/>
        </mxCell>
        <mxCell id="oP0pF-OlIuviT5u21Fy--143" value="..." style="rounded=0;whiteSpace=wrap;html=1;" parent="1" vertex="1">
          <mxGeometry x="1150.0714285714284" y="1680" width="120" height="60" as="geometry"/>
        </mxCell>
        <mxCell id="oP0pF-OlIuviT5u21Fy--146" value="5.发送通知消息消息" style="edgeStyle=orthogonalEdgeStyle;rounded=0;jumpStyle=arc;orthogonalLoop=1;jettySize=auto;html=1;exitX=1;exitY=0.5;exitDx=0;exitDy=0;entryX=0.75;entryY=1;entryDx=0;entryDy=0;dashed=1;" parent="1" source="oP0pF-OlIuviT5u21Fy--147" target="oP0pF-OlIuviT5u21Fy--139" edge="1">
          <mxGeometry x="-0.3134" relative="1" as="geometry">
            <mxPoint as="offset"/>
          </mxGeometry>
        </mxCell>
        <mxCell id="oP0pF-OlIuviT5u21Fy--147" value="开始异步退款流程" style="rounded=0;whiteSpace=wrap;html=1;" parent="1" vertex="1">
          <mxGeometry x="900.0714285714286" y="2200" width="120" height="60" as="geometry"/>
        </mxCell>
        <mxCell id="oP0pF-OlIuviT5u21Fy--148" value="系统A..." style="rounded=0;whiteSpace=wrap;html=1;" parent="1" vertex="1">
          <mxGeometry x="1640.0714285714284" y="1580" width="120" height="60" as="geometry"/>
        </mxCell>
        <mxCell id="oP0pF-OlIuviT5u21Fy--149" value="系统B..." style="rounded=0;whiteSpace=wrap;html=1;" parent="1" vertex="1">
          <mxGeometry x="1640.0714285714284" y="1735" width="120" height="60" as="geometry"/>
        </mxCell>
        <mxCell id="oP0pF-OlIuviT5u21Fy--150" value="..." style="rounded=0;whiteSpace=wrap;html=1;" parent="1" vertex="1">
          <mxGeometry x="1640.0714285714284" y="1890" width="120" height="60" as="geometry"/>
        </mxCell>
        <mxCell id="cFI78TsbJ56rSpwptIgb-8" value="2提交审核" style="edgeStyle=orthogonalEdgeStyle;rounded=0;orthogonalLoop=1;jettySize=auto;html=1;exitX=1;exitY=0.5;exitDx=0;exitDy=0;entryX=0;entryY=0.5;entryDx=0;entryDy=0;startArrow=openAsync;startFill=0;" parent="1" source="cFI78TsbJ56rSpwptIgb-1" target="cFI78TsbJ56rSpwptIgb-2" edge="1">
          <mxGeometry relative="1" as="geometry"/>
        </mxCell>
        <mxCell id="cFI78TsbJ56rSpwptIgb-1" value="业务系统" style="ellipse;whiteSpace=wrap;html=1;" parent="1" vertex="1">
          <mxGeometry x="280" y="-410" width="120" height="80" as="geometry"/>
        </mxCell>
        <mxCell id="cFI78TsbJ56rSpwptIgb-9" value="3退款确认" style="edgeStyle=orthogonalEdgeStyle;rounded=0;orthogonalLoop=1;jettySize=auto;html=1;exitX=0.5;exitY=1;exitDx=0;exitDy=0;startArrow=none;startFill=0;" parent="1" source="cFI78TsbJ56rSpwptIgb-2" target="cFI78TsbJ56rSpwptIgb-4" edge="1">
          <mxGeometry relative="1" as="geometry"/>
        </mxCell>
        <mxCell id="cFI78TsbJ56rSpwptIgb-2" value="审核中心" style="ellipse;whiteSpace=wrap;html=1;" parent="1" vertex="1">
          <mxGeometry x="600" y="-410" width="120" height="80" as="geometry"/>
        </mxCell>
        <mxCell id="cFI78TsbJ56rSpwptIgb-11" value="5 发送追回消息&lt;br&gt;8 发送成功/失败退款消息" style="edgeStyle=orthogonalEdgeStyle;rounded=0;orthogonalLoop=1;jettySize=auto;html=1;exitX=0.5;exitY=0;exitDx=0;exitDy=0;entryX=0.5;entryY=1;entryDx=0;entryDy=0;startArrow=none;startFill=0;" parent="1" source="cFI78TsbJ56rSpwptIgb-3" target="cFI78TsbJ56rSpwptIgb-1" edge="1">
          <mxGeometry relative="1" as="geometry"/>
        </mxCell>
        <mxCell id="cFI78TsbJ56rSpwptIgb-3" value="消息系统" style="ellipse;whiteSpace=wrap;html=1;" parent="1" vertex="1">
          <mxGeometry x="280" y="-200" width="120" height="80" as="geometry"/>
        </mxCell>
        <mxCell id="cFI78TsbJ56rSpwptIgb-10" value="4推送追回消息&lt;br&gt;7成功/失败退款消息" style="edgeStyle=orthogonalEdgeStyle;rounded=0;orthogonalLoop=1;jettySize=auto;html=1;exitX=0;exitY=0.5;exitDx=0;exitDy=0;entryX=1;entryY=0.5;entryDx=0;entryDy=0;startArrow=none;startFill=0;" parent="1" source="cFI78TsbJ56rSpwptIgb-4" target="cFI78TsbJ56rSpwptIgb-3" edge="1">
          <mxGeometry relative="1" as="geometry"/>
        </mxCell>
        <mxCell id="cFI78TsbJ56rSpwptIgb-4" value="订单中心" style="ellipse;whiteSpace=wrap;html=1;" parent="1" vertex="1">
          <mxGeometry x="600" y="-200" width="120" height="80" as="geometry"/>
        </mxCell>
        <mxCell id="cFI78TsbJ56rSpwptIgb-7" value="1退款申请&lt;br&gt;6追回确认" style="endArrow=classic;html=1;exitX=1;exitY=1;exitDx=0;exitDy=0;entryX=0;entryY=0;entryDx=0;entryDy=0;startArrow=openAsync;startFill=0;" parent="1" source="cFI78TsbJ56rSpwptIgb-1" target="cFI78TsbJ56rSpwptIgb-4" edge="1">
          <mxGeometry width="50" height="50" relative="1" as="geometry">
            <mxPoint x="440" y="-240" as="sourcePoint"/>
            <mxPoint x="490" y="-290" as="targetPoint"/>
          </mxGeometry>
        </mxCell>
        <mxCell id="VHpYkZ38Yjl_FgZYuDL9-1" style="edgeStyle=orthogonalEdgeStyle;rounded=0;jumpStyle=arc;orthogonalLoop=1;jettySize=auto;html=1;exitX=0;exitY=0.5;exitDx=0;exitDy=0;dashed=1;" edge="1" parent="1" source="VHpYkZ38Yjl_FgZYuDL9-2" target="VHpYkZ38Yjl_FgZYuDL9-17">
          <mxGeometry relative="1" as="geometry"/>
        </mxCell>
        <mxCell id="VHpYkZ38Yjl_FgZYuDL9-2" value="订单支付成功" style="ellipse;whiteSpace=wrap;html=1;" vertex="1" parent="1">
          <mxGeometry x="1940" y="240" width="120" height="80" as="geometry"/>
        </mxCell>
        <mxCell id="VHpYkZ38Yjl_FgZYuDL9-3" value="" style="edgeStyle=orthogonalEdgeStyle;rounded=0;jumpStyle=arc;orthogonalLoop=1;jettySize=auto;html=1;exitX=1;exitY=0.5;exitDx=0;exitDy=0;entryX=0.5;entryY=1;entryDx=0;entryDy=0;" edge="1" parent="1" source="VHpYkZ38Yjl_FgZYuDL9-5" target="VHpYkZ38Yjl_FgZYuDL9-15">
          <mxGeometry relative="1" as="geometry"/>
        </mxCell>
        <mxCell id="VHpYkZ38Yjl_FgZYuDL9-4" style="edgeStyle=orthogonalEdgeStyle;rounded=0;jumpStyle=arc;orthogonalLoop=1;jettySize=auto;html=1;exitX=0.5;exitY=1;exitDx=0;exitDy=0;entryX=0.5;entryY=0;entryDx=0;entryDy=0;" edge="1" parent="1" source="VHpYkZ38Yjl_FgZYuDL9-5" target="VHpYkZ38Yjl_FgZYuDL9-19">
          <mxGeometry relative="1" as="geometry"/>
        </mxCell>
        <mxCell id="VHpYkZ38Yjl_FgZYuDL9-5" value="订单退款中" style="ellipse;whiteSpace=wrap;html=1;" vertex="1" parent="1">
          <mxGeometry x="1940" y="400" width="120" height="80" as="geometry"/>
        </mxCell>
        <mxCell id="VHpYkZ38Yjl_FgZYuDL9-6" style="edgeStyle=orthogonalEdgeStyle;rounded=0;jumpStyle=arc;orthogonalLoop=1;jettySize=auto;html=1;exitX=0.5;exitY=1;exitDx=0;exitDy=0;entryX=0.5;entryY=0;entryDx=0;entryDy=0;" edge="1" parent="1" source="VHpYkZ38Yjl_FgZYuDL9-9" target="VHpYkZ38Yjl_FgZYuDL9-10">
          <mxGeometry relative="1" as="geometry"/>
        </mxCell>
        <mxCell id="VHpYkZ38Yjl_FgZYuDL9-7" style="edgeStyle=orthogonalEdgeStyle;rounded=0;jumpStyle=arc;orthogonalLoop=1;jettySize=auto;html=1;exitX=1;exitY=0.5;exitDx=0;exitDy=0;entryX=0;entryY=0.5;entryDx=0;entryDy=0;" edge="1" parent="1" source="VHpYkZ38Yjl_FgZYuDL9-9" target="VHpYkZ38Yjl_FgZYuDL9-13">
          <mxGeometry relative="1" as="geometry"/>
        </mxCell>
        <mxCell id="VHpYkZ38Yjl_FgZYuDL9-9" value="订单退款处理中" style="ellipse;whiteSpace=wrap;html=1;" vertex="1" parent="1">
          <mxGeometry x="1940" y="640" width="120" height="80" as="geometry"/>
        </mxCell>
        <mxCell id="VHpYkZ38Yjl_FgZYuDL9-10" value="订单退款成功" style="ellipse;whiteSpace=wrap;html=1;" vertex="1" parent="1">
          <mxGeometry x="1940" y="780" width="120" height="80" as="geometry"/>
        </mxCell>
        <mxCell id="VHpYkZ38Yjl_FgZYuDL9-11" style="edgeStyle=orthogonalEdgeStyle;rounded=0;jumpStyle=arc;orthogonalLoop=1;jettySize=auto;html=1;exitX=0.5;exitY=1;exitDx=0;exitDy=0;entryX=1;entryY=0.5;entryDx=0;entryDy=0;dashed=1;" edge="1" parent="1" source="VHpYkZ38Yjl_FgZYuDL9-13" target="VHpYkZ38Yjl_FgZYuDL9-10">
          <mxGeometry relative="1" as="geometry"/>
        </mxCell>
        <mxCell id="VHpYkZ38Yjl_FgZYuDL9-12" style="edgeStyle=orthogonalEdgeStyle;rounded=0;jumpStyle=arc;orthogonalLoop=1;jettySize=auto;html=1;exitX=1;exitY=0.5;exitDx=0;exitDy=0;entryX=0;entryY=0.5;entryDx=0;entryDy=0;" edge="1" parent="1" source="VHpYkZ38Yjl_FgZYuDL9-13" target="VHpYkZ38Yjl_FgZYuDL9-14">
          <mxGeometry relative="1" as="geometry">
            <mxPoint x="2350" y="680" as="targetPoint"/>
          </mxGeometry>
        </mxCell>
        <mxCell id="VHpYkZ38Yjl_FgZYuDL9-13" value="订单退款失败" style="ellipse;whiteSpace=wrap;html=1;" vertex="1" parent="1">
          <mxGeometry x="2120" y="640" width="120" height="80" as="geometry"/>
        </mxCell>
        <mxCell id="VHpYkZ38Yjl_FgZYuDL9-14" value="系统通知相关人员" style="shape=parallelogram;perimeter=parallelogramPerimeter;whiteSpace=wrap;html=1;" vertex="1" parent="1">
          <mxGeometry x="2350" y="650" width="160" height="60" as="geometry"/>
        </mxCell>
        <mxCell id="VHpYkZ38Yjl_FgZYuDL9-16" style="edgeStyle=orthogonalEdgeStyle;rounded=0;orthogonalLoop=1;jettySize=auto;html=1;exitX=0.5;exitY=0;exitDx=0;exitDy=0;entryX=1;entryY=0.5;entryDx=0;entryDy=0;" edge="1" parent="1" source="VHpYkZ38Yjl_FgZYuDL9-15" target="VHpYkZ38Yjl_FgZYuDL9-2">
          <mxGeometry relative="1" as="geometry"/>
        </mxCell>
        <mxCell id="VHpYkZ38Yjl_FgZYuDL9-15" value="1.允许退款申请&lt;br&gt;2.解除佣金撤回" style="rounded=0;whiteSpace=wrap;html=1;" vertex="1" parent="1">
          <mxGeometry x="2050" y="330" width="120" height="60" as="geometry"/>
        </mxCell>
        <mxCell id="VHpYkZ38Yjl_FgZYuDL9-18" style="edgeStyle=orthogonalEdgeStyle;rounded=0;orthogonalLoop=1;jettySize=auto;html=1;exitX=0.5;exitY=1;exitDx=0;exitDy=0;entryX=0;entryY=0.5;entryDx=0;entryDy=0;" edge="1" parent="1" source="VHpYkZ38Yjl_FgZYuDL9-17" target="VHpYkZ38Yjl_FgZYuDL9-5">
          <mxGeometry relative="1" as="geometry"/>
        </mxCell>
        <mxCell id="VHpYkZ38Yjl_FgZYuDL9-17" value="1.无法发起新退款&lt;br&gt;2.向钱包系统发起佣金撤回申请" style="rounded=0;whiteSpace=wrap;html=1;" vertex="1" parent="1">
          <mxGeometry x="1840" y="330" width="120" height="60" as="geometry"/>
        </mxCell>
        <mxCell id="VHpYkZ38Yjl_FgZYuDL9-20" style="edgeStyle=orthogonalEdgeStyle;rounded=0;orthogonalLoop=1;jettySize=auto;html=1;exitX=0.5;exitY=1;exitDx=0;exitDy=0;entryX=0.5;entryY=0;entryDx=0;entryDy=0;" edge="1" parent="1" source="VHpYkZ38Yjl_FgZYuDL9-19" target="VHpYkZ38Yjl_FgZYuDL9-9">
          <mxGeometry relative="1" as="geometry"/>
        </mxCell>
        <mxCell id="VHpYkZ38Yjl_FgZYuDL9-19" value="1.通知商品回滚&lt;br&gt;2.生效佣金撤回" style="rounded=0;whiteSpace=wrap;html=1;" vertex="1" parent="1">
          <mxGeometry x="1940" y="530" width="120" height="60" as="geometry"/>
        </mxCell>
      </root>
    </mxGraphModel>
  </diagram>
</mxfile>
